<?xml version="1.0" standalone="no"?>
<!DOCTYPE svg PUBLIC "-//W3C//DTD SVG 20010904//EN"
 "http://www.w3.org/TR/2001/REC-SVG-20010904/DTD/svg10.dtd">
<svg version="1.0" xmlns="http://www.w3.org/2000/svg"
 width="369.000000pt" height="369.000000pt" viewBox="0 0 369.000000 369.000000"
 preserveAspectRatio="xMidYMid meet">
<metadata>
Created by potrace 1.14, written by Peter Selinger 2001-2017
</metadata>
<g transform="translate(0.000000,369.000000) scale(0.100000,-0.100000)"
fill="#000000" stroke="none">
<path d="M1676 3669 c-455 -41 -907 -270 -1205 -611 -434 -498 -569 -1175
-360 -1802 178 -536 610 -967 1149 -1147 787 -262 1648 31 2105 716 319 479
397 1060 216 1605 -231 693 -849 1176 -1586 1239 -135 12 -178 12 -319 0z
m484 -207 c512 -107 938 -440 1160 -907 235 -495 205 -1087 -80 -1550 -86
-140 -229 -303 -348 -397 -37 -29 -69 -55 -72 -58 -15 -17 -198 -125 -263
-155 -552 -255 -1221 -169 -1667 214 -332 286 -512 633 -550 1061 -41 454 141
927 472 1229 88 81 201 170 215 171 6 0 13 3 15 8 5 12 161 92 228 117 183 68
275 90 445 106 334 31 694 -68 980 -271 101 -72 236 -203 308 -298 26 -35 47
-58 47 -51 0 20 -86 126 -174 215 -107 107 -245 213 -268 206 -5 -1 -8 2 -8 7
0 10 -9 16 -118 69 -115 58 -127 63 -150 65 -12 1 -22 4 -22 8 0 6 -55 23 -62
19 -2 -1 -15 3 -31 9 -15 6 -38 13 -50 16 -12 2 -41 9 -64 15 -80 19 -318 31
-421 20 -142 -15 -314 -53 -364 -81 -10 -5 -24 -9 -31 -9 -21 0 -267 -125
-318 -162 -248 -177 -410 -365 -532 -619 -265 -548 -185 -1200 207 -1687 293
-365 769 -591 1246 -592 453 -1 862 170 1185 495 264 266 427 600 476 975 17
129 14 353 -6 475 -20 122 -54 267 -66 280 -5 5 -9 17 -9 27 0 18 -14 53 -56
143 -30 64 -31 82 -1 30 26 -46 87 -204 87 -226 0 -8 4 -19 9 -24 11 -12 45
-163 60 -260 42 -287 1 -624 -106 -880 -229 -549 -678 -920 -1258 -1041 -139
-29 -500 -27 -645 5 -201 43 -409 129 -576 239 -100 65 -110 74 -192 147 -274
245 -450 553 -522 910 -30 148 -38 392 -16 526 36 221 76 349 163 523 225 449
662 767 1168 852 116 19 329 21 454 4 375 -51 736 -247 970 -525 193 -228 307
-472 356 -760 30 -181 18 -450 -30 -633 -33 -131 -161 -419 -195 -442 -4 -3
-13 -17 -21 -31 -24 -45 -79 -109 -184 -214 -107 -107 -106 -106 -205 -176
-183 -129 -407 -216 -640 -250 -166 -24 -408 -12 -550 28 -157 43 -216 65
-305 110 -38 20 -83 43 -100 52 -36 18 -116 73 -176 121 -63 49 -239 231 -239
246 0 7 -4 14 -8 16 -5 2 -25 27 -45 57 -21 29 -37 47 -37 39 0 -8 8 -24 18
-36 9 -11 33 -44 52 -73 42 -62 217 -241 280 -287 89 -64 210 -142 219 -142 5
0 38 -15 73 -33 35 -19 90 -42 123 -51 33 -10 69 -22 80 -27 95 -42 374 -71
563 -57 239 18 507 115 720 259 97 66 90 60 207 174 191 187 308 373 389 619
127 381 101 812 -70 1172 -390 824 -1394 1163 -2209 746 -107 -54 -235 -136
-299 -191 -124 -106 -266 -261 -330 -361 -16 -25 -37 -57 -47 -71 -56 -83
-155 -314 -185 -432 -47 -188 -56 -260 -57 -452 0 -183 4 -226 38 -380 26
-116 32 -139 43 -165 5 -14 18 -45 27 -70 25 -63 63 -148 88 -194 11 -21 16
-36 11 -33 -19 12 -103 195 -139 302 -162 487 -102 1027 164 1455 234 376 606
649 1031 754 163 41 210 45 435 41 160 -3 233 -8 305 -23z m1078 -577 c-3 -3
-9 2 -12 12 -6 14 -5 15 5 6 7 -7 10 -15 7 -18z m62 -76 c0 -6 -4 -7 -10 -4
-5 3 -10 11 -10 16 0 6 5 7 10 4 6 -3 10 -11 10 -16z m79 -144 c0 -5 -6 1 -14
15 -8 14 -14 30 -14 35 0 6 6 -1 14 -15 8 -14 14 -29 14 -35z m-2989 -1766 c0
-6 -4 -7 -10 -4 -5 3 -10 11 -10 16 0 6 5 7 10 4 6 -3 10 -11 10 -16z m66
-102 c13 -28 13 -29 0 -12 -9 11 -20 25 -26 32 -13 16 -13 26 0 18 6 -3 17
-21 26 -38z"/>
<path d="M1749 3109 c-443 -35 -842 -308 -1046 -714 -84 -167 -122 -321 -130
-526 -11 -280 55 -521 205 -754 57 -89 75 -111 174 -211 175 -180 410 -305
663 -355 109 -22 409 -19 510 5 341 79 621 272 812 558 240 361 280 821 104
1227 -170 395 -545 691 -957 755 -131 20 -219 24 -335 15z m364 -726 c41 -37
47 -72 47 -285 l0 -203 93 95 c50 52 158 164 240 248 81 84 160 157 175 163
37 14 84 4 116 -26 20 -19 26 -34 26 -67 0 -42 -2 -45 -156 -196 -86 -84 -154
-158 -151 -165 3 -7 76 -113 162 -237 176 -250 205 -300 205 -342 0 -65 -52
-104 -129 -95 -60 7 -80 30 -248 292 -74 116 -140 216 -147 223 -10 10 -29 -3
-99 -69 l-87 -81 0 -129 c0 -95 -4 -139 -16 -169 -26 -65 -95 -89 -153 -54
-57 34 -56 20 -59 534 -3 531 -2 542 61 574 38 20 91 15 120 -11z m-643 -3
c185 -30 276 -139 274 -331 0 -77 -4 -94 -33 -153 -24 -49 -45 -76 -79 -101
-78 -56 -127 -67 -322 -74 l-175 -6 -5 -192 c-5 -190 -5 -193 -31 -218 -50
-50 -133 -42 -169 17 -19 32 -20 51 -20 508 0 454 1 476 20 507 12 20 32 36
52 42 45 13 408 13 488 1z"/>
<path d="M1130 2055 l0 -167 138 4 c150 3 183 14 226 71 30 40 30 144 0 184
-38 53 -85 67 -231 71 l-133 4 0 -167z"/>
<path d="M3061 2659 c-1 -8 10 -31 25 -50 14 -19 33 -53 43 -75 22 -49 45 -69
28 -24 -6 16 -15 30 -19 30 -4 0 -8 7 -8 15 0 8 -10 30 -22 48 -13 19 -28 43
-35 53 -9 15 -12 16 -12 3z"/>
<path d="M3170 2454 c0 -6 3 -14 8 -18 4 -4 12 -22 19 -39 8 -23 12 -26 12
-12 1 11 -8 34 -19 50 -11 17 -20 25 -20 19z"/>
<path d="M3236 2285 c4 -8 8 -15 10 -15 2 0 4 7 4 15 0 8 -4 15 -10 15 -5 0
-7 -7 -4 -15z"/>
<path d="M3270 2144 c0 -14 4 -23 9 -20 5 3 7 15 4 26 -7 28 -13 25 -13 -6z"/>
<path d="M3301 1804 c0 -11 3 -14 6 -6 3 7 2 16 -1 19 -3 4 -6 -2 -5 -13z"/>
<path d="M3301 1754 c0 -11 3 -14 6 -6 3 7 2 16 -1 19 -3 4 -6 -2 -5 -13z"/>
<path d="M3291 1674 c0 -11 3 -14 6 -6 3 7 2 16 -1 19 -3 4 -6 -2 -5 -13z"/>
<path d="M422 1590 c0 -14 2 -19 5 -12 2 6 2 18 0 25 -3 6 -5 1 -5 -13z"/>
<path d="M432 1525 c0 -16 2 -22 5 -12 2 9 2 23 0 30 -3 6 -5 -1 -5 -18z"/>
<path d="M450 1435 c0 -8 4 -15 10 -15 5 0 7 7 4 15 -4 8 -8 15 -10 15 -2 0
-4 -7 -4 -15z"/>
<path d="M471 1380 c0 -8 4 -24 9 -35 5 -13 9 -14 9 -5 0 8 -4 24 -9 35 -5 13
-9 14 -9 5z"/>
<path d="M502 1280 c0 -14 2 -19 5 -12 2 6 2 18 0 25 -3 6 -5 1 -5 -13z"/>
<path d="M520 1229 c0 -8 7 -24 15 -35 18 -24 19 -7 0 26 -9 16 -14 19 -15 9z"/>
<path d="M550 1151 c0 -5 7 -15 17 -22 15 -13 15 -12 4 9 -12 23 -21 28 -21
13z"/>
<path d="M587 1085 c5 -22 33 -57 33 -41 0 9 -29 66 -34 66 -2 0 -1 -11 1 -25z"/>
</g>
</svg>
